<?xml version="1.0" encoding="UTF-8" standalone="no"?>
<!-- Created with Inkscape (http://www.inkscape.org/) -->

<svg
   width="600mm"
   height="600.00031mm"
   viewBox="0 0 600.00001 600.0003"
   version="1.1"
   id="svg1"
   inkscape:version="1.4.3 (0d15f75, 2025-12-25)"
   sodipodi:docname="favicon.svg"
   inkscape:export-filename="logo.svg"
   inkscape:export-xdpi="96"
   inkscape:export-ydpi="96"
   xmlns:inkscape="http://www.inkscape.org/namespaces/inkscape"
   xmlns:sodipodi="http://sodipodi.sourceforge.net/DTD/sodipodi-0.dtd"
   xmlns:xlink="http://www.w3.org/1999/xlink"
   xmlns="http://www.w3.org/2000/svg"
   xmlns:svg="http://www.w3.org/2000/svg">
  <sodipodi:namedview
     id="namedview1"
     pagecolor="#505050"
     bordercolor="#eeeeee"
     borderopacity="1"
     inkscape:showpageshadow="0"
     inkscape:pageopacity="0"
     inkscape:pagecheckerboard="false"
     inkscape:deskcolor="#505050"
     inkscape:document-units="mm"
     showgrid="false"
     showborder="true"
     inkscape:zoom="0.043409811"
     inkscape:cx="2487.9168"
     inkscape:cy="-1128.7771"
     inkscape:window-width="1710"
     inkscape:window-height="1045"
     inkscape:window-x="3008"
     inkscape:window-y="986"
     inkscape:window-maximized="1"
     inkscape:current-layer="svg1">
    <inkscape:page
       x="0"
       y="0"
       width="600"
       height="600.00031"
       id="page2"
       margin="0"
       bleed="0" />
  </sodipodi:namedview>
  <defs
     id="defs1">
    <linearGradient
       id="linearGradient36"
       inkscape:collect="always">
      <stop
         style="stop-color:#333333;stop-opacity:1;"
         offset="0"
         id="stop36" />
      <stop
         style="stop-color:#cccccc;stop-opacity:1;"
         offset="1"
         id="stop37" />
    </linearGradient>
    <linearGradient
       inkscape:collect="always"
       xlink:href="#linearGradient36"
       id="linearGradient37"
       x1="-42.665089"
       y1="-4036.2427"
       x2="622.01318"
       y2="-4036.2427"
       gradientUnits="userSpaceOnUse"
       gradientTransform="matrix(0.90269233,0,0,0.90269233,38.513443,3943.4854)" />
  </defs>
  <path
     style="font-size:426.667px;font-family:'DM Serif Text';-inkscape-font-specification:'DM Serif Text';white-space:pre;fill:url(#linearGradient37);fill-opacity:1;stroke:none;stroke-width:8.12423;stroke-dasharray:none"
     d="m 320.44141,29.266294 c -13.83152,0.331829 -27.89396,1.775776 -38.29094,4.240216 -20.60565,4.884559 -55.42913,18.426027 -64.98335,25.27015 -4.95935,3.551011 -13.92274,8.963283 -19.91959,12.024945 -16.18168,8.260266 -26.45139,15.280956 -30.91592,21.136631 -2.18853,2.870561 -7.54447,7.287525 -11.90268,9.814254 -12.94892,7.50805 -56.306252,23.23601 -87.209223,31.638 -15.869697,4.31415 -31.204056,9.04777 -34.069776,10.51772 -8.398185,4.29808 -6.518786,7.6644 5.081832,9.11403 5.66717,0.7078 11.358651,2.55977 12.650915,4.11483 1.674327,2.01734 5.924163,2.78237 14.834973,2.66358 6.868797,-0.0885 14.623567,-0.0343 17.231737,0.11988 2.6081,0.15454 7.94433,-0.35639 11.85744,-1.13496 5.333892,-1.06229 7.113802,-0.79392 7.113802,1.07899 0,1.37363 1.78137,4.39548 3.95762,6.7117 3.19116,3.39647 3.55863,4.95569 1.8967,8.05932 -1.13227,2.11646 -2.05904,5.53125 -2.05904,7.58777 0,2.05678 -2.98839,7.31569 -6.639872,11.6867 -3.65151,4.3712 -6.64219,9.2581 -6.64219,10.85876 0,1.60065 -2.98756,6.21928 -6.63987,10.26208 -3.65238,4.04198 -6.63986,8.28211 -6.63986,9.42284 0,1.14118 -3.41467,5.95407 -7.58776,10.69591 -4.233184,4.80864 -7.587748,10.58344 -7.587748,13.05862 0,2.44025 -3.458385,8.93647 -7.684308,14.43522 -6.351829,8.26975 -7.522684,11.08118 -6.746221,16.25442 0.747293,4.97709 -0.584875,8.65989 -6.525112,18.02334 -7.706614,12.14951 -9.115647,17.93433 -5.289411,21.7594 1.687073,1.68605 0.07356,6.76026 -6.767676,21.30697 -9.587686,20.38243 -10.235186,25.25859 -3.488803,26.22077 2.337266,0.33219 4.247765,1.53683 4.247765,2.67432 0,1.13802 -5.008977,9.40307 -11.132529,18.36618 C 0.23657199,417.0426 -4.8114,431.25856 4.489452,432.58226 c 3.122156,0.44621 8.508032,-4.45271 23.259125,-21.14972 16.847885,-19.06856 23.963875,-25.5275 25.946501,-23.54411 0.786704,0.78778 -20.485265,33.60959 -28.849401,44.50725 -10.010956,13.04499 -20.364356,35.51029 -18.955391,41.13045 1.233187,4.90893 5.280437,7.34187 9.51385,5.71811 1.457151,-0.55922 8.369355,-7.84991 15.359293,-16.20134 6.990128,-8.35108 13.119591,-14.77437 13.617927,-14.27563 0.49795,0.49819 -3.427381,9.13786 -8.719892,19.19746 -9.925156,18.85436 -11.688187,27.1566 -6.81293,32.03222 3.842717,3.84258 8.867333,2.13 16.318372,-5.5558 3.449914,-3.55958 6.865721,-6.47429 7.588222,-6.47429 0.722718,0 1.881725,3.03314 2.577759,6.74068 2.602401,13.87483 11.584743,10.58127 34.285751,-12.56557 10.403122,-10.61178 18.107382,-16.98172 20.619782,-16.98172 13.04187,-0.1345 36.56991,-19.71227 58.08226,-48.33466 11.91844,-15.85516 13.55691,-17.32637 18.52668,-16.59546 4.66017,0.68379 6.9017,-0.78606 15.42321,-10.10726 11.0223,-12.06205 27.34604,-43.59517 34.29368,-66.25636 4.46389,-14.55699 14.23864,-56.01801 17.44772,-73.99107 1.11841,-6.26062 6.73189,-22.05214 12.47273,-35.09505 5.74057,-13.043 12.46999,-30.49746 14.95718,-38.78689 6.11898,-20.39976 9.60786,-22.44336 19.81838,-11.61719 3.37795,3.58034 7.17967,9.5234 8.44513,13.20747 1.27457,3.70654 7.07421,11.21189 12.98399,16.80073 5.87595,5.55625 10.68284,11.38331 10.68284,12.94894 0,3.22342 15.80108,19.15062 22.29257,22.47081 2.76774,1.41551 4.26922,3.91118 4.26922,7.1031 0,3.41372 3.04851,7.95579 9.9584,14.827 5.47729,5.44783 14.22823,14.37393 19.44517,19.83702 5.21833,5.46264 10.98203,10.74348 12.81045,11.73473 1.82582,0.99188 5.3641,5.82733 7.85691,10.74628 5.32605,10.50256 9.08839,14.1766 18.51037,18.06585 5.4008,2.22911 7.22855,4.25394 8.29913,9.19943 2.27036,10.49019 11.51589,26.93436 17.69263,31.47291 3.9707,2.91516 6.19659,6.50796 7.05828,11.38304 2.31528,13.10709 11.64894,30.13927 18.84577,34.38418 5.40858,3.19147 6.61313,5.05833 6.67718,10.13932 0.0265,3.42779 2.80201,14.34233 6.16546,24.25507 5.34047,15.72923 6.67579,18.00727 10.48831,18.07091 5.48716,0.0623 7.88098,3.78092 7.94509,12.28103 0.076,11.86562 12.31445,58.8151 15.33037,58.8151 0.96896,0 1.85068,-6.62124 1.96247,-14.70711 0.57933,-42.46879 5.41714,-64.69587 8.27534,-38.03305 2.62091,24.44789 8.57373,56.26563 13.43648,71.80701 8.89458,28.4312 10.42511,23.92947 5.62807,-16.56323 -2.99286,-25.27367 -4.22476,-58.7038 -2.23772,-60.69315 0.69445,-0.68902 1.25717,1.0789 1.25717,3.9315 0,12.77336 13.66513,59.62526 25.11291,86.10881 4.19126,9.69248 7.97805,17.2639 8.42181,16.81932 0.44093,-0.4415 -2.62876,-13.92132 -6.82366,-29.95494 -6.91981,-26.4459 -13.6229,-60.81312 -13.27973,-68.0463 0.076,-1.56409 2.94125,5.26631 6.36558,15.17877 6.79687,19.65739 23.31528,56.1703 24.76118,54.7241 0.49617,-0.49549 -0.85653,-5.54109 -3.00412,-11.21045 -12.76211,-33.69696 -21.02636,-63.6491 -20.12158,-72.92002 0.20446,-2.08757 -1.59875,-12.33277 -4.00333,-22.76645 -10.28115,-44.60013 -11.69738,-52.90571 -14.55789,-85.36851 -9.12468,-103.51336 -19.81809,-168.50377 -30.84686,-187.4771 -3.59807,-6.1894 -41.0437,-39.34881 -58.77778,-52.04968 -5.45567,-3.90749 -9.9612,-8.4827 -9.9612,-10.16649 -0.0589,-4.477079 20.28855,-13.128663 29.55006,-12.565563 7.23379,0.441146 7.41338,0.294278 7.9768,-6.413178 0.50603,-6.054989 -0.41561,-7.739052 -7.81166,-14.248998 -5.17799,-4.557513 -8.89348,-9.69311 -9.71303,-13.423396 -1.78852,-8.149506 -13.45357,-18.297934 -25.7044,-22.367271 -10.79415,-3.584953 -32.00104,-3.170436 -63.8806,1.249235 -13.26051,1.837792 -17.79618,1.657434 -31.69679,-1.259436 -9.47252,-1.987909 -23.072,-2.769279 -36.90364,-2.437359 z"
     id="path35" />
</svg>
