<?xml version="1.0" encoding="UTF-8" standalone="no"?>
<!-- Created with Inkscape (http://www.inkscape.org/) -->

<svg
   width="3600mm"
   height="1800mm"
   viewBox="0 0 3600.0001 1800"
   version="1.1"
   id="svg1"
   xmlns:xlink="http://www.w3.org/1999/xlink"
   xmlns="http://www.w3.org/2000/svg"
   xmlns:svg="http://www.w3.org/2000/svg">
  <defs
     id="defs1">
    <linearGradient
       id="linearGradient17">
      <stop
         style="stop-color:#1a1a1a;stop-opacity:1;"
         offset="0"
         id="stop17" />
      <stop
         style="stop-color:#b2b2b2;stop-opacity:1;"
         offset="1"
         id="stop18" />
    </linearGradient>
    <linearGradient
       xlink:href="#linearGradient17"
       id="linearGradient18"
       x1="882.8634"
       y1="-1798.2535"
       x2="1325.9818"
       y2="-1798.2535"
       gradientUnits="userSpaceOnUse" />
  </defs>
  <g
     id="layer1"
     transform="translate(1453.6367,3355.9199)">
    <path
       style="font-size:426.667px;font-family:'DM Serif Text';-inkscape-font-specification:'DM Serif Text';baseline-shift:baseline;white-space:pre;display:inline;overflow:visible;opacity:1;vector-effect:none;fill:#808080;stroke:none;enable-background:accumulate;stop-color:#000000;stop-opacity:1"
       d="m 1561.1504,-1919.873 -53.6426,13.2558 v 8.0664 l 7.1055,1.4199 c 3.7711,0.9447 5.945,2.3343 6.8144,3.7832 l 0.047,0.076 0.055,0.072 c 1.0432,1.3413 1.7695,4.0128 1.7695,8.0176 v 36.2128 c -4.5964,-2.7662 -9.6629,-4.9846 -15.4179,-6.3808 -6.6786,-1.8182 -13.6557,-2.7285 -20.92,-2.7285 -12.1596,0 -23.3703,2.9526 -33.5273,8.8437 -10.1945,5.9128 -18.3476,14.7971 -24.416,26.5293 -6.1006,11.5958 -9.1074,26.0444 -9.1074,43.2969 0,17.2338 2.5987,31.5519 7.8867,42.9414 l 0.01,0.014 0.01,0.016 c 5.4721,11.1468 13.0388,19.5498 22.6485,25.0703 l 0.01,0.01 0.012,0.01 c 9.5684,5.2931 20.3688,7.9356 32.3086,7.9356 8.4855,0 16.3014,-1.213 23.4277,-3.6563 6.3199,-2.1668 11.9162,-5.1857 16.9746,-8.8183 l 2.4981,11.6621 52.1562,-3.4551 v -8.2109 l -4.3828,-1.1954 c -3.3114,-0.921 -5.3778,-2.3895 -6.5332,-4.3574 -1.2369,-2.3095 -1.8965,-5.2184 -1.8965,-8.7949 v -143.293 l 1.2148,-42.8027 z m -0.5957,3.2363 2.6484,1.834 -1.1699,41.2207 v 143.3359 c 0,3.9582 0.7306,7.3953 2.2656,10.2461 l 0.012,0.022 0.012,0.023 c 1.6268,2.7889 4.5186,4.6914 8.3437,5.7539 v 0 l 2.1758,0.5938 v 3.1113 l -46.7656,3.0996 -2.9102,-13.584 -1.8867,1.4688 c -5.2245,4.0636 -11.2289,7.2627 -18.0391,9.5976 -6.778,2.3239 -14.2552,3.4942 -22.455,3.4942 -11.4936,0 -21.7439,-2.5238 -30.8438,-7.5547 -9.0537,-5.2035 -16.1817,-13.0793 -21.4336,-23.7715 -5.0365,-10.8553 -7.6015,-24.7383 -7.6015,-41.6621 0,-16.9082 2.9514,-30.8611 8.7656,-41.9082 v -0.01 0 c 5.8498,-11.3093 13.587,-19.7066 23.2559,-25.3144 9.7064,-5.6299 20.3471,-8.4375 32.0234,-8.4375 7.0259,0 13.7408,0.8776 20.1621,2.6289 l 0.022,0.01 h 0.021 c 6.4029,1.5523 11.9884,3.9667 16.791,7.2325 l 2.3418,1.5937 v -41.5683 c 0,-4.2875 -0.657,-7.5392 -2.3496,-9.7715 -1.5259,-2.4833 -4.4875,-4.0594 -8.6172,-5.0918 l -0.035,-0.01 -4.7891,-0.9571 v -3.2578 z m 78.1133,58.3418 -50.4141,17.9394 v 7.5742 l 5.6289,1.5 0.045,0.01 c 3.7227,0.7445 5.9291,2.1434 7.043,4.0527 l 0.016,0.025 0.016,0.024 c 1.163,1.8277 1.955,4.8669 2.1484,9.0801 v 87.248 c 0,3.7726 -0.7551,6.6375 -2.1309,8.7012 l -0.025,0.037 -0.023,0.039 c -1.1229,1.9251 -3.3726,3.4325 -7.1113,4.3672 l -0.057,0.014 -5.5488,1.8496 v 8.2422 h 77.4863 v -8.2773 l -10.0312,-3.0098 -0.025,-0.01 c -3.5283,-0.9285 -5.822,-2.4328 -7.1621,-4.4316 -1.4069,-2.2997 -2.1465,-5.1677 -2.1465,-8.7168 v -77.7363 c 1.3341,-3.3962 2.7479,-6.3418 4.2383,-8.7657 1.7364,-2.6993 3.5564,-4.9939 5.4512,-6.8886 l 0.041,-0.041 0.037,-0.045 c 2.1998,-2.5664 4.0215,-3.361 5.7656,-3.0703 l 0.066,0.01 0.066,0.01 c 2.1541,0.1657 4.0198,1.1841 5.8145,3.3379 l 0.045,0.053 0.6426,0.6425 -0.1075,-0.1191 c 5.9718,7.4132 13.3332,11.2852 21.7286,11.2852 5.6779,0 10.6678,-1.8351 14.705,-5.4473 l 0.016,-0.014 0.016,-0.016 c 4.1164,-3.8997 6.1289,-9.549 6.1289,-16.582 0,-6.4641 -2.0316,-11.9754 -6.0723,-16.2285 -4.1179,-4.3348 -10.259,-6.4258 -18.0703,-6.4258 -5.641,0 -11.2716,1.5755 -16.8203,4.6582 -5.5021,3.0566 -10.5866,7.0284 -15.25,11.8945 -3.5076,3.6602 -6.4105,7.6341 -9.0059,11.7637 l -2.4824,-24.2598 z m 144.455,0.2168 c -10.8559,0 -21.035,1.4085 -30.5214,4.2343 v 0 0 c -9.3226,2.8372 -16.9081,7.125 -22.6719,12.8887 -5.8206,5.8207 -8.7813,13.1336 -8.7813,21.6191 0,5.2859 1.7507,9.8229 5.2051,13.2774 l 0.033,0.033 0.035,0.031 c 3.6503,3.2209 8.24,4.8438 13.5058,4.8438 5.6964,0 10.6282,-1.9622 14.4688,-5.8028 l 0.014,-0.014 0.016,-0.016 c 3.8799,-4.0956 6.0137,-10.2677 6.6425,-18.332 l 0.8985,-3.8926 0.01,-0.08 c 0.7741,-6.3873 2.441,-10.7554 4.6757,-13.1621 2.5008,-2.6779 5.6832,-3.9902 9.9239,-3.9902 h 0.8945 c 6.9981,0 11.7299,2.3211 14.834,7.0684 3.049,4.6633 4.8203,13.8033 4.8203,27.1855 v 19.8984 c -3.9811,0.7209 -8.0191,1.4413 -12.1641,2.1622 l 0.053,-0.01 c -4.3977,0.5998 -8.304,1.3013 -11.7344,2.1075 -19.993,3.803 -34.825,9.8007 -44.4649,18.2089 -9.3613,8.1404 -14.2226,17.338 -14.2226,27.3516 0,12.4364 4.0577,22.303 12.1523,29.1524 l 0.016,0.014 0.016,0.014 c 8.2168,6.5734 18.2351,9.8633 29.8379,9.8633 10.1418,0 18.5088,-2.1343 24.9765,-6.5156 5.6829,-3.8497 11.4272,-8.9044 17.2285,-14.8653 1.8366,5.9175 4.984,10.9206 9.5684,14.7715 l 0.025,0.021 0.025,0.02 c 5.4813,4.2164 12.6989,6.2695 21.4726,6.2695 7.7053,0 13.9207,-1.304 18.6133,-4.0683 4.5655,-2.4939 8.6881,-6.1124 12.3633,-10.8086 l 0.7793,-0.9961 -4.2773,-4.7051 h -7.5157 c -3.8098,0 -6.3847,-0.9643 -8.0761,-2.7383 -1.6915,-1.7739 -2.6407,-4.542 -2.6407,-8.5742 v -66.4433 c 0,-19.5099 -4.74,-33.8998 -14.4902,-42.8203 -9.6838,-8.8595 -23.6151,-13.205 -41.5352,-13.2051 z m -96.2363,3 c 7.2849,0 12.4643,1.8813 15.8946,5.4922 3.5075,3.692 5.248,8.3109 5.248,14.1621 0,6.4679 -1.7565,11.1438 -5.1816,14.3945 -3.5065,3.1286 -7.6455,4.6641 -12.6836,4.6641 -7.4953,0 -13.8436,-3.2776 -19.3926,-10.1661 l -0.049,-0.064 -0.6543,-0.6523 0.092,0.1015 c -2.1634,-2.5962 -4.8459,-4.145 -7.8321,-4.3926 -2.9859,-0.4638 -5.8941,1.0996 -8.4336,4.0489 -2.0561,2.0644 -3.9908,4.5121 -5.8125,7.3457 l -0.01,0.012 -0.01,0.012 c -1.6487,2.6791 -3.1737,5.8388 -4.5898,9.4805 l -0.1016,0.2617 v 78.3457 c 0,3.9845 0.8455,7.4603 2.6055,10.3203 l 0.014,0.023 0.016,0.022 c 1.8398,2.7597 4.9025,4.6284 8.9121,5.6836 l -0.051,-0.014 7.8691,2.3613 v 3.0449 H 1591.25 v -3.0801 l 3.4434,-1.1484 -0.1114,0.033 c 4.1848,-1.0462 7.2809,-2.9072 8.9454,-5.7246 1.788,-2.6992 2.6191,-6.1733 2.6191,-10.3301 v -87.334 -0.035 c -0.2048,-4.5056 -0.9998,-8.0068 -2.6074,-10.545 -1.6714,-2.8416 -4.8164,-4.6152 -9.0254,-5.457 l 0.092,0.022 -3.3555,-0.8945 v -3.1524 l 46.7168,-16.625 2.4902,2.2832 2.6153,25.5762 v 2.0078 l 2.8222,0.709 c 2.9131,-5.4377 6.6043,-10.4895 11.084,-15.1641 4.4738,-4.6683 9.3168,-8.4435 14.541,-11.3457 5.1776,-2.8765 10.2779,-4.2812 15.3633,-4.2812 z m 96.2363,0 c 17.437,10e-5 30.5218,4.195 39.5098,12.4179 8.9214,8.1623 13.5156,21.5821 13.5156,40.6075 v 66.4433 c 0,4.509 1.0881,8.1477 3.4688,10.6446 2.3807,2.4968 5.9138,3.6679 10.248,3.6679 h 6.1895 l 1.6055,1.7637 c -3.2491,3.9285 -6.7584,7.0298 -10.5997,9.125 l -0.021,0.012 -0.024,0.014 c -4.0443,2.3898 -9.7361,3.664 -17.1133,3.664 -8.2953,0 -14.7739,-1.9155 -19.6191,-5.6328 -4.7052,-3.9623 -7.7904,-9.0879 -9.3125,-15.5566 l -0.6387,-2.7168 -1.914,2.0312 c -6.2963,6.6899 -12.4747,12.079 -18.5196,16.1739 -5.8477,3.9613 -13.5711,6 -23.2929,6 -11.0324,0 -20.2751,-3.0643 -27.9453,-9.1934 -7.3887,-6.2598 -11.0762,-15.0606 -11.0762,-26.8496 0,-9.0553 4.2785,-17.3374 13.1914,-25.0879 v 0 c 9.0252,-7.8731 23.3823,-13.7881 43.0937,-17.5332 l 0.033,-0.01 0.031,-0.01 c 3.3176,-0.7806 7.1457,-1.4677 11.4785,-2.0586 h 0.027 l 0.027,-0.01 c 4.5723,-0.7951 9.0461,-1.5895 13.4199,-2.3847 l 1.2305,-0.2246 v -22.4063 c 0,-13.6322 -1.604,-23.1622 -5.3086,-28.8281 -3.6496,-5.5816 -9.6448,-8.4258 -17.3457,-8.4258 h -0.8945 c -4.8947,0 -9.0608,1.6662 -12.1211,4.9453 v 0 0 c -2.9052,3.1288 -4.6048,8.0488 -5.4277,14.6856 -7e-4,0.01 0,0.01 0,0.016 l -0.916,3.9707 -0.01,0.1133 c -0.5796,7.7281 -2.6018,13.2186 -5.8359,16.6426 -3.3077,3.3013 -7.3109,4.9121 -12.334,4.9121 -4.6476,0 -8.3862,-1.3498 -11.4824,-4.0664 -2.8789,-2.8961 -4.2969,-6.4916 -4.2969,-11.1192 0,-7.8025 2.5995,-14.195 7.9024,-19.498 5.358,-5.358 12.4682,-9.4124 21.416,-12.1368 9.1851,-2.7361 19.0674,-4.1093 29.664,-4.1093 z m 72.9883,1.4687 v 8.2852 l 6.0664,1.7812 h 0.01 c 3.2137,1.1352 5.6859,2.6178 7.4766,4.4082 l 0.053,0.055 0.059,0.047 c 1.909,1.562 3.4632,3.9717 4.5918,7.3574 l 0.01,0.022 45.9551,124.9531 h 18.7773 l 34.0567,-92.0722 31.4609,92.0722 h 17.6328 l 43.2578,-124.6679 v -0.01 c 1.1471,-3.441 2.5611,-6.0375 4.1602,-7.8145 1.5563,-1.7291 3.8682,-3.0941 7.0527,-4.0313 9e-4,-2e-4 0,0 0,0 l 7.6328,-2.082 v -8.3067 h -42.9258 v 8.2774 l 7.0508,2.1152 0.021,0.01 c 2.6623,0.7099 4.0818,1.9122 4.7968,3.7793 0.715,1.8667 0.6548,4.6413 -0.4804,8.332 -2e-4,7e-4 2e-4,0 0,0 l -25.3711,74.7012 -25.1094,-75.043 v -0.01 c -1.3329,-3.8084 -1.5834,-6.5447 -1.1719,-7.9688 0.6149,-1.6465 2.1396,-3.043 5.0508,-4.1347 l 5.1445,-1.8379 v -8.2188 h -64.3789 v 8.2227 l 6.0664,2.1406 c 2.4944,0.8922 4.2451,2.322 5.461,4.4063 l 0.022,0.039 0.025,0.037 c 1.4772,2.2156 2.9317,5.3867 4.295,9.4766 l 4.3008,12.9023 -23.3516,61.9961 -25.7774,-77.0468 v 0 c -1.2121,-3.5432 -1.1573,-6.1515 -0.1641,-8.0585 0.9933,-1.9071 3.0489,-3.3784 6.5762,-4.3067 l 5.8848,-1.4726 v -8.3321 z m 3,3 h 68.211 v 2.9903 l -3.6407,0.9101 h -0.01 c -4.0202,1.058 -6.9829,2.9639 -8.4726,5.8242 -1.4897,2.8602 -1.3838,6.4091 -0.014,10.414 l 28.4492,85.0352 26.7031,-70.8906 -4.6386,-13.9121 c -1.4083,-4.2249 -2.9256,-7.5871 -4.6133,-10.1328 -1.5645,-2.6706 -3.975,-4.6116 -7.0313,-5.7032 v 0 l -4.0664,-1.4336 v -3.1016 h 58.3789 v 3.1055 l -3.1875,1.1367 h -0.012 c -3.4217,1.2832 -5.8576,3.2508 -6.8418,5.957 l -0.014,0.041 -0.014,0.041 c -0.7672,2.5576 -0.2234,5.7558 1.2148,9.8652 l 27.9219,83.4551 28.2539,-83.1914 0.01,-0.019 c 1.2477,-4.0551 1.4866,-7.4885 0.414,-10.2891 -1.0724,-2.8001 -3.5264,-4.7261 -6.8222,-5.6055 v 0 l -4.8457,-1.4551 v -3.0449 h 36.9258 v 3.0156 l -5.4649,1.4903 h -0.014 c -3.5677,1.0494 -6.4187,2.6634 -8.4375,4.9062 v 0 c -1.9761,2.1959 -3.5406,5.1613 -4.7773,8.8711 l -42.5489,122.625 h -13.3535 l -33.4922,-98.0234 -36.2597,98.0234 h -14.5938 l -45.2109,-122.9218 c -1.2471,-3.7412 -3.0589,-6.6729 -5.4961,-8.6856 -2.1738,-2.1522 -5.0327,-3.8315 -8.5371,-5.0683 l -0.037,-0.012 -4.0274,-1.1855 z m -359.6367,4.4492 c -10.2597,0 -19.1338,5.5546 -26.2656,16.1446 0,0 0,0.01 0,0.01 0,0 0,0 0,0 -7.242,10.5609 -10.6836,27.2103 -10.6836,50 0,22.789 3.2163,38.9327 10.1133,48.5469 6.7724,9.4404 15.7735,14.33 26.5449,14.33 8.8669,0 17.2578,-2.9126 25.0234,-8.6347 l 0.6113,-0.4492 v -112.4297 l -0.7089,-0.4414 c -7.5709,-4.7062 -15.8183,-7.0782 -24.627,-7.0782 z m 0,3 c 8.0053,0 15.4068,2.1033 22.3359,6.25 v 109.1211 c -7.1497,5.1074 -14.6437,7.6621 -22.6347,7.6621 -9.8867,0 -17.7701,-4.246 -24.1074,-13.08 -6.2128,-8.6605 -9.5508,-24.2973 -9.5508,-46.7969 0,-22.4908 3.5088,-38.614 10.166,-48.3145 v -0.01 0 c 6.7711,-10.06 14.5807,-14.8321 23.7832,-14.8321 z m 300.6426,58.1289 -1.7285,0.2676 c -5.1989,0.7999 -10.495,1.7975 -15.8887,2.9961 h -0.01 -0.01 c -8.7639,2.0381 -15.9988,5.8466 -21.5781,11.4258 l -0.01,0.01 -0.01,0.01 c -5.4597,5.6697 -8.166,13.3712 -8.166,22.7911 0,8.1703 1.84,14.5384 5.748,18.8808 l 0.025,0.029 0.029,0.027 c 4.0439,4.0438 9.2734,6.0996 15.3613,6.0996 4.1977,0 8.2199,-0.9527 11.9942,-2.8399 3.7245,-1.8621 8.2494,-4.889 13.6582,-9.0957 l 0.5781,-0.4492 z m -3,3.5586 v 45.1016 c -5.0369,3.8793 -9.2882,6.7145 -12.5781,8.3594 -3.3766,1.6884 -6.9046,2.5215 -10.6524,2.5215 -5.4156,0 -9.707,-1.7097 -13.2051,-5.1914 -3.2287,-3.6039 -4.9589,-9.1426 -4.9589,-16.8457 0,-8.847 2.4536,-15.6422 7.3144,-20.6973 5.1427,-5.1396 11.8064,-8.6789 20.1133,-10.6133 h 0.01 c 0,-8e-4 0.01,0 0.01,0 4.7397,-1.0529 9.3712,-1.8905 13.9512,-2.6309 z"
       id="path4" />
    <path
       style="font-size:426.667px;font-family:'DM Serif Text';-inkscape-font-specification:'DM Serif Text';white-space:pre;fill:url(#linearGradient18);stroke:none;stroke-width:0.698327;stroke-opacity:1"
       d="m 1119.519,-1998.1995 c -10.215,0.2451 -20.6006,1.3115 -28.2791,3.1316 -15.2179,3.6073 -40.9361,13.6081 -47.9922,18.6627 -3.6627,2.6226 -10.2824,6.6198 -14.7113,8.8808 -11.9506,6.1005 -19.5352,11.2855 -22.8324,15.6101 -1.6163,2.1201 -5.5718,5.3821 -8.79047,7.2481 -9.56304,5.545 -41.58366,17.1606 -64.4064,23.3657 -11.72026,3.1861 -23.04517,6.6821 -25.1616,7.7677 -6.20232,3.1742 -4.81432,5.6604 3.7531,6.731 4.18538,0.5227 8.38872,1.8904 9.3431,3.0389 1.23654,1.4899 4.37518,2.0549 10.95609,1.9671 5.07282,-0.065 10.79991,-0.025 12.72611,0.089 1.9262,0.1142 5.86717,-0.2632 8.75704,-0.8382 3.9393,-0.7845 5.25377,-0.5864 5.25377,0.7968 0,1.0145 1.3156,3.2462 2.9228,4.9568 2.35677,2.5084 2.62817,3.66 1.4008,5.9522 -0.8362,1.563 -1.5207,4.0849 -1.5207,5.6038 0,1.5189 -2.207,5.4028 -4.90367,8.631 -2.6968,3.2282 -4.90547,6.8373 -4.90547,8.0194 0,1.1822 -2.2064,4.5932 -4.90367,7.5789 -2.6974,2.9852 -4.90377,6.1166 -4.90377,6.9591 0,0.8428 -2.5218,4.3973 -5.60379,7.8992 -3.12634,3.5514 -5.60379,7.8162 -5.60379,9.6442 0,1.8022 -2.55413,6.5999 -5.6751,10.6609 -4.69103,6.1075 -5.55574,8.1838 -4.9823,12.0044 0.5519,3.6758 -0.43195,6.3956 -4.819,13.3109 -5.69157,8.9727 -6.73219,13.245 -3.90639,16.07 1.24595,1.2451 0.0543,4.9926 -4.99814,15.7358 -7.08082,15.053 -7.55901,18.6542 -2.5766,19.3648 1.72615,0.2454 3.13711,1.1351 3.13711,1.9751 0,0.8405 -3.69929,6.9445 -8.22172,13.5641 -15.03337,22.0036 -18.76145,32.5024 -11.89248,33.4801 2.30581,0.3295 6.28345,-3.2885 17.1776,-15.6197 12.44269,-14.0828 17.69808,-18.853 19.16231,-17.3882 0.581,0.5818 -15.12901,24.8218 -21.30619,32.87 -7.39341,9.6342 -15.03972,26.2255 -13.99916,30.3762 0.91075,3.6254 3.89977,5.4222 7.02629,4.223 1.07615,-0.413 6.18103,-5.7974 11.34332,-11.9652 5.16242,-6.1675 9.68923,-10.9114 10.05726,-10.543 0.36776,0.3679 -2.53122,6.7486 -6.43991,14.1779 -7.33004,13.9245 -8.63209,20.0561 -5.03157,23.6568 2.83798,2.8379 6.54881,1.5731 12.05164,-4.1031 2.54787,-2.6289 5.07055,-4.7814 5.60414,-4.7814 0.53374,0 1.38971,2.24 1.90376,4.9781 1.92195,10.247 8.55569,7.8146 25.32105,-9.2801 7.68297,-7.8371 13.37284,-12.5415 15.22831,-12.5415 9.63174,-0.099 27.00785,-14.5581 42.89529,-35.6967 8.8022,-11.7094 10.0122,-12.796 13.6826,-12.2562 3.4417,0.505 5.0971,-0.5806 11.3905,-7.4645 8.1403,-8.9081 20.1959,-32.1964 25.327,-48.9325 3.2967,-10.7508 10.5156,-41.371 12.8857,-54.6447 0.8259,-4.6237 4.9717,-16.2861 9.2115,-25.9188 4.2396,-9.6327 9.2094,-22.5233 11.0463,-28.6453 4.5191,-15.0658 7.0957,-16.5752 14.6365,-8.5796 2.4947,2.6442 5.3024,7.0334 6.237,9.754 0.9413,2.7374 5.2245,8.2804 9.5891,12.408 4.3396,4.1035 7.8896,8.4069 7.8896,9.5632 0,2.3806 11.6696,14.1433 16.4638,16.5954 2.044,1.0454 3.1529,2.8885 3.1529,5.2458 0,2.5212 2.2514,5.8757 7.3546,10.9502 4.0452,4.0234 10.508,10.6157 14.3609,14.6503 3.8539,4.0343 8.1106,7.9344 9.4609,8.6665 1.3484,0.7325 3.9616,4.3037 5.8026,7.9365 3.9334,7.7564 6.712,10.4697 13.6705,13.3421 3.9886,1.6462 5.3385,3.1417 6.1291,6.7941 1.6768,7.7473 8.5049,19.8918 13.0666,23.2437 2.9325,2.153 4.5764,4.8064 5.2128,8.4068 1.7099,9.6799 8.6031,22.2587 13.9182,25.3938 3.9944,2.357 4.884,3.7357 4.9313,7.4882 0.02,2.5315 2.0693,10.5922 4.5533,17.9131 3.9442,11.6165 4.9303,13.299 7.746,13.3459 4.0524,0.046 5.8203,2.7923 5.8677,9.0699 0.056,8.7631 9.0946,43.4369 11.322,43.4369 0.7156,0 1.3668,-4.89 1.4493,-10.8617 0.4279,-31.3646 4.0007,-47.7799 6.1116,-28.0885 1.9356,18.0554 6.332,41.5539 9.9233,53.0317 6.5689,20.9973 7.6992,17.6727 4.1565,-12.2326 -2.2104,-18.6653 -3.1201,-43.3545 -1.6526,-44.8238 0.5128,-0.5089 0.9284,0.7968 0.9284,2.9035 0,9.4336 10.0921,44.0352 18.5467,63.5941 3.0954,7.1583 5.892,12.75 6.2197,12.4216 0.3257,-0.326 -1.9414,-10.2813 -5.0394,-22.1227 -5.1105,-19.5311 -10.061,-44.9123 -9.8075,-50.2542 0.056,-1.1552 2.1722,3.8892 4.7011,11.21 5.0198,14.5175 17.2191,41.4835 18.287,40.4154 0.3664,-0.366 -0.6327,-4.0923 -2.2187,-8.2792 -9.4252,-24.8863 -15.5286,-47.007 -14.8604,-53.8538 0.151,-1.5417 -1.1807,-9.1082 -2.9566,-16.8138 -7.5929,-32.9386 -8.6389,-39.0725 -10.7514,-63.0473 -6.7389,-76.4479 -14.6363,-124.4453 -22.7814,-138.4577 -2.6573,-4.571 -30.3121,-29.0604 -43.4093,-38.4404 -4.0292,-2.8857 -7.3566,-6.2647 -7.3566,-7.5082 -0.043,-3.3065 14.9837,-9.696 21.8236,-9.28 5.3424,0.3258 5.475,0.2172 5.8911,-4.7364 0.3738,-4.4718 -0.3069,-5.7156 -5.7691,-10.5234 -3.8241,-3.3658 -6.5681,-7.1586 -7.1734,-9.9136 -1.3209,-6.0186 -9.9359,-13.5135 -18.9835,-16.5188 -7.9718,-2.6477 -23.6338,-2.3416 -47.1778,0.9225 -9.7933,1.3573 -13.1431,1.2241 -23.4091,-0.9301 -6.9958,-1.4682 -17.0394,-2.0452 -27.2545,-1.8001 z"
       id="path33" />
    <path
       style="baseline-shift:baseline;display:inline;overflow:visible;opacity:1;vector-effect:none;fill:#505050;fill-opacity:1;stroke-width:0.997506;stroke-linecap:round;stroke-linejoin:round;stroke-miterlimit:0;enable-background:accumulate;stop-color:#000000;stop-opacity:1"
       d="m -1450.6417,-3355.9199 a 2.9953078,2.9903322 0 0 0 -2.995,2.99 v 1794.02 a 2.9953078,2.9903322 0 0 0 2.995,2.99 h 3594.01 a 2.9953078,2.9903322 0 0 0 2.995,-2.99 v -1794.02 a 2.9953078,2.9903322 0 0 0 -2.995,-2.99 z m 2.995,5.98 h 3588.02 v 1788.04 h -3588.02 z"
       id="rect21" />
  </g>
</svg>
