<?xml version="1.0" encoding="UTF-8" standalone="no"?>
<!-- Created with Inkscape (http://www.inkscape.org/) -->

<svg
   width="1804.4977mm"
   height="600.00031mm"
   viewBox="0 0 1804.4977 600.0003"
   version="1.1"
   id="svg1"
   xmlns:xlink="http://www.w3.org/1999/xlink"
   xmlns="http://www.w3.org/2000/svg"
   xmlns:svg="http://www.w3.org/2000/svg">
  <defs
     id="defs1">
    <linearGradient
       id="linearGradient32">
      <stop
         style="stop-color:#333333;stop-opacity:1;"
         offset="0"
         id="stop32" />
      <stop
         style="stop-color:#cccccc;stop-opacity:1;"
         offset="1"
         id="stop33" />
    </linearGradient>
    <linearGradient
       xlink:href="#linearGradient32"
       id="linearGradient33"
       x1="-24.379974"
       y1="-2286.9741"
       x2="1780.1177"
       y2="-2286.9741"
       gradientUnits="userSpaceOnUse"
       gradientTransform="translate(24.379975,2586.9742)" />
  </defs>
  <path
     id="path25"
     style="font-size:426.667px;font-family:'DM Serif Text';-inkscape-font-specification:'DM Serif Text';baseline-shift:baseline;white-space:pre;display:inline;overflow:visible;opacity:1;vector-effect:none;fill:url(#linearGradient33);fill-opacity:1;enable-background:accumulate;stop-color:#000000;stop-opacity:1"
     d="m 354.98408,0.0820399 c -15.32251,0.3676 -30.90085,1.9672 -42.4186,4.6974 C 289.7386,10.19044 251.16125,25.19164 240.57711,32.77354 c -5.49395,3.9339 -15.42357,9.9296 -22.06687,13.3212 -17.92601,9.1507 -29.30277,16.9283 -34.24856,23.4151 -2.42445,3.1801 -8.35774,8.0731 -13.18575,10.8722 -14.34478,8.3174 -62.3759,25.7408 -96.610123,35.0485 -17.580405,4.7793 -34.567763,10.0231 -37.742399,11.6515 -9.303487,4.7614 -7.221503,8.4907 5.62963,10.0965 6.278075,0.7841 12.583082,2.8357 14.014649,4.5584 1.854814,2.2348 6.562769,3.0823 16.434139,2.9507 7.60923,-0.098 16.199952,-0.038 19.089274,0.1328 2.889248,0.1712 8.8007,-0.3949 13.13563,-1.2573 5.90887,-1.1768 7.88066,-0.8795 7.88066,1.1953 0,1.5217 1.97339,4.8693 4.38423,7.4352 3.53516,3.7626 3.94225,5.4899 2.10116,8.9282 -1.25432,2.3445 -2.281,6.1273 -2.281,8.4056 0,2.2784 -3.31052,8.1042 -7.35562,12.9465 -4.04513,4.8423 -7.35821,10.2561 -7.35821,12.0293 0,1.7732 -3.309602,6.8898 -7.355621,11.3683 -4.046102,4.4778 -7.355624,9.1749 -7.355624,10.4386 0,1.2643 -3.782745,6.596 -8.405688,11.8489 -4.68951,5.3271 -8.405689,11.7243 -8.405689,14.4663 0,2.7033 -3.831193,9.8998 -8.512659,15.9913 -7.036538,9.1613 -8.333609,12.2756 -7.473445,18.0066 0.827849,5.5136 -0.647921,9.5934 -7.228499,19.9663 -8.537365,13.4591 -10.098284,19.8674 -5.859591,24.1049 1.868935,1.8677 0.08149,7.4891 -7.497217,23.6038 -10.621212,22.5796 -11.338504,27.9814 -3.864881,29.0473 2.589217,0.3681 4.705657,1.7026 4.705657,2.9626 0,1.2608 -5.548927,10.4167 -12.332581,20.346 -22.55003414,33.0054 -28.1421622,48.7537 -17.8387042,50.2202 3.458715,0.4943 9.4251662,-4.9327 25.7663852,-23.4295 18.66404,-21.1241 26.547119,-28.2795 28.743466,-26.0822 0.871509,0.8726 -22.693523,37.2326 -31.95929,49.305 -11.090109,14.4512 -22.5595662,39.3382 -20.9987182,45.5642 1.366121,5.4381 5.8496472,8.1333 10.5394082,6.3345 1.614228,-0.6194 9.271548,-8.6961 17.014982,-17.9478 7.743645,-9.2513 14.533845,-16.3669 15.085901,-15.8145 0.551627,0.5519 -3.796846,10.1229 -9.659875,21.2669 -10.995061,20.8868 -12.948139,30.0841 -7.547344,35.4852 4.256952,4.2568 9.82321,2.3597 18.07745,-6.1547 3.821805,-3.9433 7.605822,-7.1722 8.406206,-7.1722 0.800625,0 2.084574,3.3602 2.855639,7.4673 2.882932,15.3705 12.833549,11.722 37.981661,-13.9201 11.524541,-11.7557 20.059301,-18.8123 22.842531,-18.8123 14.44774,-0.1491 40.51204,-21.8371 64.34336,-53.545 13.20322,-17.5642 15.01831,-19.1941 20.52381,-18.3844 5.16252,0.7575 7.64568,-0.8709 17.08578,-11.1968 12.21048,-13.3623 30.29386,-48.2946 37.99044,-73.3986 4.94508,-16.1262 15.77353,-62.0567 19.32854,-81.9671 1.23897,-6.9356 7.45756,-24.4292 13.81724,-38.8782 6.35939,-14.4489 13.81423,-33.785 16.56954,-42.9679 6.77858,-22.5988 10.64355,-24.8627 21.95473,-12.8695 3.74208,3.9663 7.95363,10.55 9.3555,14.6311 1.41197,4.1061 7.83678,12.4206 14.38362,18.6118 6.50936,6.1553 11.83442,12.6104 11.83442,14.3448 0,3.5708 17.5044,21.2151 24.69565,24.8931 3.0661,1.5681 4.72942,4.3328 4.72942,7.8688 0,3.7818 3.37713,8.8134 11.03189,16.4253 6.06773,6.035 15.762,15.9234 21.54132,21.9754 5.78085,6.0515 12.16586,11.9017 14.19138,12.9998 2.02263,1.0987 5.94233,6.4555 8.70386,11.9047 5.90018,11.6346 10.06809,15.7047 20.50573,20.0132 5.98299,2.4694 8.00776,4.7125 9.19375,10.1911 2.5151,11.621 12.75727,29.8378 19.59984,34.8656 4.39873,3.2294 6.86458,7.2096 7.81916,12.6101 2.56485,14.52 12.90465,33.3882 20.87728,38.0907 5.9916,3.5355 7.326,5.6036 7.39696,11.2324 0.0293,3.7972 3.10407,15.8882 6.83008,26.8696 5.91616,17.4247 7.39543,19.9485 11.61893,20.019 6.07866,0.069 8.73051,4.1884 8.80153,13.6048 0.0842,13.1447 13.64192,65.1552 16.98294,65.1552 1.07341,0 2.05019,-7.3349 2.17403,-16.2925 0.64178,-47.0468 6.0011,-71.67 9.1674,-42.1329 2.90344,27.0833 9.49794,62.3309 14.88488,79.5476 9.85339,31.496 11.54891,26.5091 6.23476,-18.3487 -3.31548,-27.998 -4.68016,-65.0318 -2.47892,-67.2357 0.76931,-0.7633 1.39268,1.1953 1.39268,4.3553 0,14.1504 15.1382,66.0527 27.82001,95.3911 4.64307,10.7374 8.83807,19.125 9.32966,18.6324 0.48846,-0.489 -2.91213,-15.422 -7.55923,-33.184 -7.66575,-29.2967 -15.09141,-67.3685 -14.71125,-75.3814 0.0842,-1.7327 3.25831,5.8338 7.05177,16.8149 7.52956,21.7764 25.82861,62.2254 27.43037,60.6232 0.54966,-0.5489 -0.94887,-6.1385 -3.32797,-12.4189 -14.13783,-37.3294 -23.29293,-70.5103 -22.29062,-80.7806 0.22651,-2.3126 -1.7711,-13.6622 -4.43488,-25.2206 -11.38943,-49.4079 -12.95832,-58.6088 -16.12718,-94.571 -10.1083,-114.6718 -21.95443,-186.6681 -34.17207,-207.6866 -3.98594,-6.8566 -45.4681,-43.5905 -65.11386,-57.6605 -6.04378,-4.3286 -11.03498,-9.3971 -11.03498,-11.2624 -0.0653,-4.9597 22.4756,-14.5439 32.73547,-13.9201 8.01357,0.4887 8.21251,0.326 8.83667,-7.1044 0.56058,-6.7077 -0.46042,-8.5734 -8.65374,-15.7851 -5.73616,-5.0487 -9.85216,-10.7379 -10.76006,-14.8704 -1.98131,-9.028 -14.90383,-20.2704001 -28.47527,-24.7784001 -11.95772,-3.9715 -35.45066,-3.5123 -70.76674,1.3839 -14.68996,2.0359 -19.71456,1.8361 -35.11362,-1.3952 -10.49363,-2.2022 -25.55908,-3.0678 -40.88174,-2.7001 z m 662.89182,115.0622001 -83.15821,20.5507 v 15.7029 l 12.37702,2.4769 c 5.35091,1.3439 8.00107,3.272 8.8222,4.6405 l 0.14056,0.2346 0.1664,0.2145 c 1.04431,1.3427 2.18126,4.8878 2.18126,10.6448 v 50.1933 c -6.17803,-3.2776 -12.94598,-5.8343 -20.31607,-7.6248 -10.20966,-2.7767 -20.86983,-4.1641 -31.94327,-4.1641 -18.60212,0 -35.84679,4.5356 -51.42012,13.5681 -15.6818,9.0955 -28.22016,22.7868 -37.48608,40.6952 -9.36752,17.8061 -13.91802,39.8528 -13.91802,65.9924 0,26.0775 3.92184,47.874 12.03906,65.3572 l 0.0191,0.045 0.0217,0.043 c 8.37148,17.053 20.0458,30.0519 34.87126,38.5687 l 0.031,0.018 0.031,0.017 c 14.70166,8.1328 31.31291,12.1817 49.55305,12.1817 12.9425,0 24.92199,-1.8513 35.87275,-5.6059 8.48875,-2.9104 16.24586,-6.7252 23.28126,-11.3843 l 3.40651,15.8962 82.27504,-5.4513 v -16.1406 l -8.2124,-2.2382 c -4.5607,-1.2678 -7.0465,-3.1312 -8.4321,-5.4549 -1.6343,-3.0606 -2.5703,-7.0279 -2.5703,-12.1073 v -214.9083 l 1.8557,-65.3929 z m -1.7849,9.7126 2.1348,1.4769 -1.7209,60.6423 v 215.0354 c 0,6.2138 1.1465,11.7565 3.666,16.4357 l 0.037,0.068 0.039,0.066 c 2.7946,4.7907 7.743,7.966 13.8555,9.664 h 0.01 l 1.6113,0.4392 v 0.8418 l -66.10558,4.3812 -4.70876,-21.9785 -5.66012,4.4023 c -7.62882,5.9336 -16.4039,10.6153 -26.40614,14.0446 -9.90586,3.3964 -20.86963,5.1196 -32.95509,5.1196 -16.90355,0 -31.86337,-3.6911 -45.16055,-11.0391 -13.1567,-7.5659 -23.51216,-18.9833 -31.22239,-34.6718 -7.36253,-15.8811 -11.18381,-36.3733 -11.18381,-61.5198 0,-25.1005 4.38449,-45.6585 12.88862,-61.8164 l 0.008,-0.014 0.008,-0.014 c 8.61046,-16.6469 19.90682,-28.8754 34.01601,-37.0587 14.22185,-8.2487 29.75202,-12.3538 46.90411,-12.3538 10.35119,0 20.22277,1.2932 29.65452,3.8654 l 0.0605,0.016 0.0625,0.016 c 9.37595,2.2731 17.4918,5.7893 24.45071,10.5213 l 7.03161,4.7816 v -66.6037 c 0,-6.6219 -0.94055,-11.9141 -3.92017,-15.908 -2.7802,-4.4571 -7.79548,-6.9599 -14.2379,-8.5706 l -0.10386,-0.025 -5.42551,-1.0841 v -1.2796 z m 118.1365,82.5102 -78.3926,27.8944 v 14.6777 l 10.1818,2.7151 0.1405,0.027 c 5.2095,1.0419 7.807,2.8535 9.0625,5.0059 l 0.043,0.074 0.047,0.074 c 1.4042,2.2066 2.5887,6.408 2.8711,12.4923 v 130.7889 c 0,5.359 -1.0748,9.1917 -2.8184,11.807 l -0.076,0.1111 -0.067,0.1173 c -1.2829,2.1993 -4.0145,4.1857 -9.2718,5.5 l -0.1679,0.041 -9.9451,3.3166 v 16.2341 h 120.7321 v -16.3395 l -16.6873,-5.008 -0.076,-0.02 c -4.9034,-1.2904 -7.7657,-3.2572 -9.4061,-5.67 -1.8484,-3.0313 -2.881,-6.8797 -2.881,-11.8773 v -116.1697 c 1.9134,-4.8182 3.9258,-8.98 6.0136,-12.379 2.5282,-3.9279 5.1576,-7.2392 7.8636,-9.9452 l 0.123,-0.123 0.1132,-0.1312 c 3.0241,-3.5281 4.9124,-4.1276 6.5686,-3.8515 l 0.1968,0.031 0.1974,0.016 c 2.5889,0.1992 4.7631,1.3194 7.1681,4.2054 l 0.1307,0.1561 0.9824,0.9823 c 9.2349,11.3093 20.9314,17.463 34.076,17.463 8.9892,0 17.1082,-2.9726 23.5587,-8.7441 l 0.049,-0.043 0.047,-0.043 c 6.6881,-6.3361 9.8966,-15.539 9.8966,-26.5075 0,-10.1558 -3.27,-19.0921 -9.7307,-25.8929 -6.6928,-7.045 -16.6244,-10.3395 -28.7362,-10.3395 -8.8781,0 -17.7191,2.493 -26.3204,7.2714 -8.4613,4.7008 -16.2725,10.8025 -23.4099,18.2501 -3.7906,3.9555 -7.2138,8.1101 -10.3146,12.4333 l -3.1389,-30.6989 z m 216.1615,0.6413 v 0.01 c -16.4783,0 -31.9699,2.1392 -46.4256,6.4451 h -0.012 -0.014 c -14.2618,4.3405 -25.9949,10.944 -34.9436,19.8928 -9.1192,9.1192 -13.8317,20.7808 -13.8317,34.0212 0,8.4089 2.8729,15.9103 8.4688,21.5062 l 0.1,0.1 0.1054,0.092 c 5.8857,5.1933 13.3992,7.83 21.748,7.83 9.0448,0 17.1347,-3.2047 23.2932,-9.3633 l 0.043,-0.043 0.041,-0.043 c 6.2681,-6.6162 9.5446,-16.3306 10.5394,-28.6035 l 1.3591,-5.8926 0.029,-0.2367 c 1.1299,-9.3216 3.5932,-15.4257 6.4203,-18.4764 3.3321,-3.5691 7.3704,-5.2736 13.2437,-5.2736 h 1.342 c 9.9701,0 16.1203,3.0891 20.3672,9.5844 4.0819,6.2428 6.8652,19.6627 6.8652,39.5485 v 27.9591 c -5.384,0.9708 -10.8,1.943 -16.3829,2.914 h 0.031 c -6.5899,0.902 -12.4695,1.957 -17.6636,3.1771 -30.1802,5.7491 -52.7713,14.8057 -67.6837,27.8143 -14.3748,12.5019 -22.0994,26.9837 -22.0994,42.7209 0,19.134 6.3572,34.7318 19.0211,45.4474 l 0.049,0.039 0.047,0.039 c 12.7324,10.1858 28.3388,15.2869 46.1641,15.2869 15.5276,0 28.5582,-3.273 38.7248,-10.1601 7.8005,-5.2841 15.6457,-12.1812 23.5329,-20.0137 3.0028,7.7707 7.6574,14.4459 13.9531,19.7342 l 0.074,0.062 0.076,0.059 c 8.6972,6.6902 20.0744,9.8712 33.584,9.8712 11.8095,0 21.5253,-1.9797 29.0504,-6.4099 7.1292,-3.9055 13.5287,-9.5414 19.1839,-16.7675 l 2.342,-2.9905 -8.3634,-9.1994 h -12.27 c -5.3214,0 -8.4661,-1.2916 -10.4862,-3.4102 -2.02,-2.1186 -3.3378,-5.6175 -3.3378,-11.3083 v -99.6642 c 0,-29.6281 -7.2219,-51.9412 -22.4689,-65.8906 -15.0475,-13.7668 -36.5758,-20.3982 -63.8183,-20.3982 z m 107.2332,6.7102 v 16.3592 l 10.6485,3.1311 c 4.5593,1.6159 7.9487,3.6814 10.3358,6.0683 l 0.1581,0.1582 0.1742,0.1426 c 2.4498,2.0045 4.5794,5.2136 6.1774,10.0076 l 0.022,0.064 69.4882,188.9337 h 31.301 l 49.4352,-133.6445 45.666,133.6445 h 29.6602 l 65.4161,-188.5254 0.01,-0.025 c 1.6534,-4.96 3.6634,-8.5763 5.7795,-10.9275 1.9879,-2.2087 5.0513,-4.0732 9.541,-5.3945 l 13.0623,-3.5625 v -16.428 h -68.8883 v 16.3401 l 12.2127,3.6639 0.068,0.018 c 3.5176,0.938 4.8675,2.1982 5.672,4.2989 0.8031,2.0969 0.8456,5.7614 -0.7658,11.0118 l -35.8945,105.6933 -35.5508,-106.252 -0.01,-0.029 c -1.9069,-5.4484 -2.08,-9.159 -1.727,-10.4924 0.6527,-1.6756 2.2601,-3.3316 6.2094,-4.8126 l 9.1777,-3.2773 v -16.1623 h -101.0667 v 16.1762 l 10.5823,3.7342 c 3.3214,1.1862 5.4488,2.9446 7.0136,5.627 l 0.067,0.1173 0.076,0.1111 c 2.0475,3.0712 4.173,7.6646 6.1774,13.6777 l 6.1996,18.5958 -32.5158,86.3244 -36.6603,-109.5741 v -0.015 c -1.6998,-4.9686 -1.4963,-8.1747 -0.3788,-10.3203 1.1174,-2.1455 3.5177,-4.029 8.4393,-5.3242 l 10.5058,-2.6247 v -16.5059 z m -251.5841,2.2939 v 0 c 10.5326,0 17.5832,2.6661 22.2126,7.5391 4.8615,5.1175 7.2538,11.3762 7.2538,19.6934 0,9.2685 -2.4452,15.5466 -7.0564,19.9352 -4.8571,4.3212 -10.424,6.4027 -17.494,6.4027 -10.568,0 -19.3278,-4.4735 -27.3343,-14.4126 l -0.1524,-0.187 -0.9225,-0.923 c -3.4789,-4.1044 -8.0174,-6.75 -13.011,-7.2099 -5.405,-0.8318 -10.5735,2.0726 -14.6503,6.7888 -3.1863,3.2116 -6.1607,6.9778 -8.9437,11.3068 l -0.025,0.037 -0.024,0.037 c -2.5623,4.1639 -4.9018,9.0201 -7.0647,14.582 l -0.3065,0.7871 v 117.9395 c 0,6.2926 1.3478,11.9533 4.2442,16.66 l 0.043,0.07 0.045,0.066 c 3.1252,4.6881 8.2657,7.7578 14.6048,9.4372 l -0.087,-0.025 10.2015,3.0608 v 0.6444 h -102.7328 v -0.7483 l 3.452,-1.1524 c 6.5465,-1.6641 11.7648,-4.7139 14.642,-9.5736 2.9589,-4.513 4.252,-10.1598 4.252,-16.6527 v -131.0504 -0.1039 c -0.3159,-6.9481 -1.5024,-12.5316 -4.2246,-16.861 -2.8883,-4.9034 -8.221,-7.832 -14.7924,-9.1911 l 0.038,0.01 -3.3631,-0.8966 v -1.4118 l 67.3044,-23.9495 2.1058,1.9301 3.8241,37.3983 v 2.8985 l 8.4666,2.1249 c 4.2698,-7.9704 9.6795,-15.3793 16.2657,-22.2518 6.5684,-6.854 13.6554,-12.3715 21.2835,-16.6094 7.488,-4.1599 14.7377,-6.1386 21.949,-6.1386 z m 144.3535,0 c 25.793,0 44.7841,6.1817 57.7442,18.0387 12.7603,11.6744 19.543,31.0757 19.543,59.2502 v 99.6642 c 0,7.1211 1.7361,13.232 5.824,17.5193 4.088,4.2874 10.1055,6.1991 17,6.1991 h 8.2894 l 0.463,0.5101 c -4.3675,4.9844 -9.0305,8.8678 -14.0353,11.5977 l -0.068,0.037 -0.066,0.039 c -5.5781,3.2962 -13.7165,5.1836 -24.5256,5.1836 -12.0736,0 -21.2319,-2.763 -28.0215,-7.9571 -6.667,-5.6293 -11.0028,-12.8159 -13.1853,-22.0917 l -1.9182,-8.1525 -5.7402,6.0979 c -9.3544,9.939 -18.5044,17.9114 -27.4025,23.9391 -8.3064,5.6269 -19.4099,8.6113 -33.6775,8.6113 -16.1206,0 -29.4011,-4.4246 -40.4963,-13.285 -10.5399,-8.9457 -15.785,-21.3409 -15.785,-38.5273 0,-12.8642 5.9766,-24.6005 19.0097,-35.9337 13.0718,-11.403 34.241,-20.2107 63.5801,-25.785 l 0.096,-0.018 0.096,-0.023 c 4.8881,-1.1502 10.565,-2.1703 17.0082,-3.0489 l 0.082,-0.012 0.08,-0.014 c 6.8637,-1.1936 13.5799,-2.3877 20.1466,-3.5817 l 3.6953,-0.6718 v -35.4867 c 0,-20.6358 -2.2838,-35.2237 -8.3323,-44.4743 -5.8834,-8.9981 -15.8217,-13.6581 -27.9001,-13.6581 h -1.342 c -7.8311,0 -14.8162,2.7664 -19.8262,8.1344 -4.8477,5.2205 -7.4246,12.9945 -8.6971,23.1174 l -1.4046,6.0818 -0.025,0.3421 c -0.8456,11.2758 -3.7902,18.9615 -8.1385,23.5722 -4.5551,4.5294 -9.8555,6.6777 -16.8713,6.6777 -6.4924,0 -11.4587,-1.8141 -15.6797,-5.4943 -3.8687,-3.9178 -5.7423,-8.6012 -5.7423,-15.0332 0,-11.1915 3.6297,-20.0902 11.1957,-27.6562 7.7314,-7.7315 18.0384,-13.6388 31.1754,-17.6407 h 0.014 c 13.5481,-4.0341 28.1465,-6.0663 43.8418,-6.0663 z m 116.2306,6.7051 h 97.8163 v 0.4785 l -3.7693,0.9415 -0.027,0.01 c -6.4004,1.6843 -11.5241,4.866 -14.1309,9.8713 -2.6069,5.0052 -2.3281,11.0351 -0.1545,17.3886 l 44.6779,133.5407 42.5664,-113.0055 -7.2089,-21.6272 c -2.1482,-6.4446 -4.4727,-11.6372 -7.1624,-15.7013 -2.6101,-4.4103 -6.7053,-7.6809 -11.6835,-9.4589 h -0.01 l -4.6018,-1.6247 v -0.8066 h 83.0663 v 0.8201 l -3.3048,1.1797 -0.033,0.012 c -5.4982,2.0618 -9.8274,5.4317 -11.5879,10.2733 l -0.043,0.1214 -0.037,0.1246 c -1.4071,4.6907 -0.379,9.8139 1.8474,16.1778 0,0 9e-4,0.01 5e-4,0.01 h -5e-4 v 5e-4 l 43.9922,131.4824 44.5373,-131.1367 0.019,-0.062 c 1.9554,-6.3551 2.4491,-11.9995 0.5721,-16.9007 -1.877,-4.9011 -6.337,-8.3317 -11.758,-9.7772 l -5.5996,-1.6816 v -0.6428 h 50.8888 v 0.555 l -6.5587,1.789 -0.043,0.012 c -5.6381,1.6583 -10.3207,4.2624 -13.6953,8.0119 -3.2436,3.6041 -5.6999,8.3276 -7.6212,14.086 0,0.01 -0.01,0.01 -0.01,0.013 l -5e-4,5e-4 v 5e-4 l -6e-4,5e-4 v 6e-4 5e-4 5e-4 l -63.2891,182.3961 h -16.8202 l -51.7658,-151.4941 -56.039,151.4941 h -18.7539 l -67.2832,-182.9372 c -1.9387,-5.7748 -4.8039,-10.485 -8.7638,-13.8167 -3.55,-3.5151 -8.1464,-6.1897 -13.6405,-8.1287 l -0.1132,-0.039 -4.4824,-1.3188 z m -541.70702,2.1735 c -16.18745,0 -30.29536,8.9221 -41.2657,25.215 -11.30365,16.4859 -16.41811,41.8549 -16.41811,76.2677 0,34.4007 4.73306,58.9945 15.59181,74.1308 10.48495,14.6155 24.82608,22.4354 41.64655,22.4354 13.78867,0 26.89469,-4.5669 38.86946,-13.3904 l 1.83193,-1.3498 v -171.0315 l -2.12493,-1.3198 c -11.68811,-7.2656 -24.51685,-10.9574 -38.13101,-10.9574 z m 0,8.9994 v 0 c 11.20259,0 21.50913,2.8699 31.25598,8.4667 v 161.109 c -10.10465,6.9805 -20.53679,10.4728 -31.70143,10.4728 -14.1665,0 -25.15397,-5.8855 -34.33382,-18.6816 -8.80607,-12.2751 -13.90458,-35.3523 -13.90458,-68.8846 0,-33.506 5.31071,-57.2914 14.85388,-71.1972 l 0.0114,-0.018 0.0103,-0.016 c 9.88513,-14.6865 20.80038,-21.2519 33.80827,-21.2519 z m 453.21682,82.3211 -5.1857,0.7968 c -7.8496,1.2077 -15.8419,2.7172 -23.9784,4.5253 h -0.022 l -0.021,0.01 c -13.4798,3.1349 -24.7543,9.0455 -33.4471,17.7384 l -0.031,0.029 -0.029,0.031 c -8.6324,8.9645 -12.8788,21.1925 -12.8788,35.7461 0,12.5931 2.8404,22.7582 9.2015,29.8261 l 0.078,0.088 0.084,0.084 c 6.4705,6.4705 15.0113,9.8087 24.6347,9.8087 6.634,0 13.0369,-1.5162 18.9963,-4.4959 5.8101,-2.9051 12.6798,-7.518 20.8612,-13.8813 l 1.7384,-1.3513 z m -9,10.6717 v 63.793 c -7.0685,5.3864 -13.1043,9.4115 -17.6253,11.6721 -4.7668,2.3834 -9.6867,3.5466 -14.9706,3.5466 -7.6055,0 -13.3349,-2.3039 -18.1658,-7.0879 -4.3241,-4.8545 -6.8322,-12.5326 -6.8322,-23.7185 0,-12.8409 3.4949,-22.3508 10.3379,-29.4726 7.3888,-7.3758 16.954,-12.4819 29.0726,-15.3029 6.181,-1.373 12.1888,-2.414 18.1834,-3.4298 z" />
</svg>
